<mxfile host="app.diagrams.net" modified="2023-11-22T18:14:47.829Z" agent="Mozilla/5.0 (X11; Linux x86_64) AppleWebKit/537.36 (KHTML, like Gecko) Chrome/119.0.0.0 Safari/537.36" etag="2JG1YoCEWxN7FIHFsYi3" version="22.1.3" type="github">
  <diagram name="Page-1" id="iJJPgPojxm32tUBdcqbc">
    <mxGraphModel dx="3434" dy="1380" grid="1" gridSize="10" guides="1" tooltips="1" connect="1" arrows="1" fold="1" page="1" pageScale="1" pageWidth="827" pageHeight="1169" math="0" shadow="0">
      <root>
        <mxCell id="0" />
        <mxCell id="1" parent="0" />
        <mxCell id="bI7eu8botKNeIg27B3gn-1" value="5" style="ellipse;whiteSpace=wrap;html=1;aspect=fixed;" vertex="1" parent="1">
          <mxGeometry x="80" width="40" height="40" as="geometry" />
        </mxCell>
        <mxCell id="bI7eu8botKNeIg27B3gn-2" value="4" style="ellipse;whiteSpace=wrap;html=1;aspect=fixed;" vertex="1" parent="1">
          <mxGeometry x="240" width="40" height="40" as="geometry" />
        </mxCell>
        <mxCell id="bI7eu8botKNeIg27B3gn-3" value="8" style="ellipse;whiteSpace=wrap;html=1;aspect=fixed;" vertex="1" parent="1">
          <mxGeometry width="40" height="40" as="geometry" />
        </mxCell>
        <mxCell id="bI7eu8botKNeIg27B3gn-4" value="1" style="ellipse;whiteSpace=wrap;html=1;aspect=fixed;" vertex="1" parent="1">
          <mxGeometry x="160" width="40" height="40" as="geometry" />
        </mxCell>
        <mxCell id="bI7eu8botKNeIg27B3gn-5" value="10" style="ellipse;whiteSpace=wrap;html=1;aspect=fixed;" vertex="1" parent="1">
          <mxGeometry x="320" width="40" height="40" as="geometry" />
        </mxCell>
        <mxCell id="bI7eu8botKNeIg27B3gn-6" value="7" style="ellipse;whiteSpace=wrap;html=1;aspect=fixed;" vertex="1" parent="1">
          <mxGeometry x="480" width="40" height="40" as="geometry" />
        </mxCell>
        <mxCell id="bI7eu8botKNeIg27B3gn-7" value="4" style="ellipse;whiteSpace=wrap;html=1;aspect=fixed;" vertex="1" parent="1">
          <mxGeometry x="640" width="40" height="40" as="geometry" />
        </mxCell>
        <mxCell id="bI7eu8botKNeIg27B3gn-8" value="6" style="ellipse;whiteSpace=wrap;html=1;aspect=fixed;" vertex="1" parent="1">
          <mxGeometry x="400" width="40" height="40" as="geometry" />
        </mxCell>
        <mxCell id="bI7eu8botKNeIg27B3gn-9" value="1" style="ellipse;whiteSpace=wrap;html=1;aspect=fixed;" vertex="1" parent="1">
          <mxGeometry x="560" width="40" height="40" as="geometry" />
        </mxCell>
        <mxCell id="bI7eu8botKNeIg27B3gn-10" value="6" style="ellipse;whiteSpace=wrap;html=1;aspect=fixed;" vertex="1" parent="1">
          <mxGeometry x="720" width="40" height="40" as="geometry" />
        </mxCell>
        <mxCell id="bI7eu8botKNeIg27B3gn-11" value="5" style="ellipse;whiteSpace=wrap;html=1;aspect=fixed;" vertex="1" parent="1">
          <mxGeometry x="80" y="100" width="40" height="40" as="geometry" />
        </mxCell>
        <mxCell id="bI7eu8botKNeIg27B3gn-12" value="4" style="ellipse;whiteSpace=wrap;html=1;aspect=fixed;" vertex="1" parent="1">
          <mxGeometry x="240" y="100" width="40" height="40" as="geometry" />
        </mxCell>
        <mxCell id="bI7eu8botKNeIg27B3gn-13" value="8" style="ellipse;whiteSpace=wrap;html=1;aspect=fixed;" vertex="1" parent="1">
          <mxGeometry y="100" width="40" height="40" as="geometry" />
        </mxCell>
        <mxCell id="bI7eu8botKNeIg27B3gn-14" value="1" style="ellipse;whiteSpace=wrap;html=1;aspect=fixed;" vertex="1" parent="1">
          <mxGeometry x="160" y="100" width="40" height="40" as="geometry" />
        </mxCell>
        <mxCell id="bI7eu8botKNeIg27B3gn-15" value="10" style="ellipse;whiteSpace=wrap;html=1;aspect=fixed;" vertex="1" parent="1">
          <mxGeometry x="320" y="100" width="40" height="40" as="geometry" />
        </mxCell>
        <mxCell id="bI7eu8botKNeIg27B3gn-16" value="7" style="ellipse;whiteSpace=wrap;html=1;aspect=fixed;" vertex="1" parent="1">
          <mxGeometry x="480" y="100" width="40" height="40" as="geometry" />
        </mxCell>
        <mxCell id="bI7eu8botKNeIg27B3gn-17" value="4" style="ellipse;whiteSpace=wrap;html=1;aspect=fixed;" vertex="1" parent="1">
          <mxGeometry x="640" y="100" width="40" height="40" as="geometry" />
        </mxCell>
        <mxCell id="bI7eu8botKNeIg27B3gn-18" value="6" style="ellipse;whiteSpace=wrap;html=1;aspect=fixed;" vertex="1" parent="1">
          <mxGeometry x="400" y="100" width="40" height="40" as="geometry" />
        </mxCell>
        <mxCell id="bI7eu8botKNeIg27B3gn-19" value="1" style="ellipse;whiteSpace=wrap;html=1;aspect=fixed;" vertex="1" parent="1">
          <mxGeometry x="560" y="100" width="40" height="40" as="geometry" />
        </mxCell>
        <mxCell id="bI7eu8botKNeIg27B3gn-20" value="6" style="ellipse;whiteSpace=wrap;html=1;aspect=fixed;" vertex="1" parent="1">
          <mxGeometry x="720" y="100" width="40" height="40" as="geometry" />
        </mxCell>
        <mxCell id="bI7eu8botKNeIg27B3gn-21" value="" style="endArrow=none;html=1;rounded=0;" edge="1" parent="1">
          <mxGeometry width="50" height="50" relative="1" as="geometry">
            <mxPoint x="750" y="150" as="sourcePoint" />
            <mxPoint x="750" y="90" as="targetPoint" />
            <Array as="points">
              <mxPoint x="770" y="150" />
              <mxPoint x="770" y="90" />
            </Array>
          </mxGeometry>
        </mxCell>
        <mxCell id="bI7eu8botKNeIg27B3gn-22" value="" style="endArrow=none;html=1;rounded=0;" edge="1" parent="1">
          <mxGeometry width="50" height="50" relative="1" as="geometry">
            <mxPoint x="410" y="150" as="sourcePoint" />
            <mxPoint x="410" y="90" as="targetPoint" />
            <Array as="points">
              <mxPoint x="390" y="150" />
              <mxPoint x="390" y="90" />
            </Array>
          </mxGeometry>
        </mxCell>
        <mxCell id="bI7eu8botKNeIg27B3gn-23" value="" style="endArrow=none;html=1;rounded=0;" edge="1" parent="1">
          <mxGeometry width="50" height="50" relative="1" as="geometry">
            <mxPoint x="350" y="150" as="sourcePoint" />
            <mxPoint x="350" y="90" as="targetPoint" />
            <Array as="points">
              <mxPoint x="370" y="150" />
              <mxPoint x="370" y="90" />
            </Array>
          </mxGeometry>
        </mxCell>
        <mxCell id="bI7eu8botKNeIg27B3gn-24" value="" style="endArrow=none;html=1;rounded=0;" edge="1" parent="1">
          <mxGeometry width="50" height="50" relative="1" as="geometry">
            <mxPoint x="10" y="150" as="sourcePoint" />
            <mxPoint x="10" y="90" as="targetPoint" />
            <Array as="points">
              <mxPoint x="-10" y="150" />
              <mxPoint x="-10" y="90" />
            </Array>
          </mxGeometry>
        </mxCell>
        <mxCell id="bI7eu8botKNeIg27B3gn-25" value="5" style="ellipse;whiteSpace=wrap;html=1;aspect=fixed;" vertex="1" parent="1">
          <mxGeometry x="80" y="200" width="40" height="40" as="geometry" />
        </mxCell>
        <mxCell id="bI7eu8botKNeIg27B3gn-26" value="4" style="ellipse;whiteSpace=wrap;html=1;aspect=fixed;" vertex="1" parent="1">
          <mxGeometry x="240" y="200" width="40" height="40" as="geometry" />
        </mxCell>
        <mxCell id="bI7eu8botKNeIg27B3gn-27" value="8" style="ellipse;whiteSpace=wrap;html=1;aspect=fixed;" vertex="1" parent="1">
          <mxGeometry y="200" width="40" height="40" as="geometry" />
        </mxCell>
        <mxCell id="bI7eu8botKNeIg27B3gn-28" value="1" style="ellipse;whiteSpace=wrap;html=1;aspect=fixed;" vertex="1" parent="1">
          <mxGeometry x="160" y="200" width="40" height="40" as="geometry" />
        </mxCell>
        <mxCell id="bI7eu8botKNeIg27B3gn-29" value="10" style="ellipse;whiteSpace=wrap;html=1;aspect=fixed;" vertex="1" parent="1">
          <mxGeometry x="320" y="200" width="40" height="40" as="geometry" />
        </mxCell>
        <mxCell id="bI7eu8botKNeIg27B3gn-30" value="" style="endArrow=none;html=1;rounded=0;" edge="1" parent="1">
          <mxGeometry width="50" height="50" relative="1" as="geometry">
            <mxPoint x="350" y="250" as="sourcePoint" />
            <mxPoint x="350" y="190" as="targetPoint" />
            <Array as="points">
              <mxPoint x="370" y="250" />
              <mxPoint x="370" y="190" />
            </Array>
          </mxGeometry>
        </mxCell>
        <mxCell id="bI7eu8botKNeIg27B3gn-31" value="" style="endArrow=none;html=1;rounded=0;" edge="1" parent="1">
          <mxGeometry width="50" height="50" relative="1" as="geometry">
            <mxPoint x="250" y="250" as="sourcePoint" />
            <mxPoint x="250" y="190" as="targetPoint" />
            <Array as="points">
              <mxPoint x="230" y="250" />
              <mxPoint x="230" y="190" />
            </Array>
          </mxGeometry>
        </mxCell>
        <mxCell id="bI7eu8botKNeIg27B3gn-32" value="" style="endArrow=none;html=1;rounded=0;" edge="1" parent="1">
          <mxGeometry width="50" height="50" relative="1" as="geometry">
            <mxPoint x="10" y="250" as="sourcePoint" />
            <mxPoint x="10" y="190" as="targetPoint" />
            <Array as="points">
              <mxPoint x="-10" y="250" />
              <mxPoint x="-10" y="190" />
            </Array>
          </mxGeometry>
        </mxCell>
        <mxCell id="bI7eu8botKNeIg27B3gn-33" value="" style="endArrow=none;html=1;rounded=0;" edge="1" parent="1">
          <mxGeometry width="50" height="50" relative="1" as="geometry">
            <mxPoint x="190" y="250" as="sourcePoint" />
            <mxPoint x="190" y="190" as="targetPoint" />
            <Array as="points">
              <mxPoint x="210" y="250" />
              <mxPoint x="210" y="190" />
            </Array>
          </mxGeometry>
        </mxCell>
        <mxCell id="bI7eu8botKNeIg27B3gn-34" value="7" style="ellipse;whiteSpace=wrap;html=1;aspect=fixed;" vertex="1" parent="1">
          <mxGeometry x="480" y="200" width="40" height="40" as="geometry" />
        </mxCell>
        <mxCell id="bI7eu8botKNeIg27B3gn-35" value="4" style="ellipse;whiteSpace=wrap;html=1;aspect=fixed;" vertex="1" parent="1">
          <mxGeometry x="640" y="200" width="40" height="40" as="geometry" />
        </mxCell>
        <mxCell id="bI7eu8botKNeIg27B3gn-36" value="6" style="ellipse;whiteSpace=wrap;html=1;aspect=fixed;" vertex="1" parent="1">
          <mxGeometry x="400" y="200" width="40" height="40" as="geometry" />
        </mxCell>
        <mxCell id="bI7eu8botKNeIg27B3gn-37" value="1" style="ellipse;whiteSpace=wrap;html=1;aspect=fixed;" vertex="1" parent="1">
          <mxGeometry x="560" y="200" width="40" height="40" as="geometry" />
        </mxCell>
        <mxCell id="bI7eu8botKNeIg27B3gn-38" value="6" style="ellipse;whiteSpace=wrap;html=1;aspect=fixed;" vertex="1" parent="1">
          <mxGeometry x="722" y="200" width="40" height="40" as="geometry" />
        </mxCell>
        <mxCell id="bI7eu8botKNeIg27B3gn-39" value="" style="endArrow=none;html=1;rounded=0;" edge="1" parent="1">
          <mxGeometry width="50" height="50" relative="1" as="geometry">
            <mxPoint x="750" y="250" as="sourcePoint" />
            <mxPoint x="750" y="190" as="targetPoint" />
            <Array as="points">
              <mxPoint x="770" y="250" />
              <mxPoint x="770" y="190" />
            </Array>
          </mxGeometry>
        </mxCell>
        <mxCell id="bI7eu8botKNeIg27B3gn-40" value="" style="endArrow=none;html=1;rounded=0;" edge="1" parent="1">
          <mxGeometry width="50" height="50" relative="1" as="geometry">
            <mxPoint x="410" y="250" as="sourcePoint" />
            <mxPoint x="410" y="190" as="targetPoint" />
            <Array as="points">
              <mxPoint x="390" y="250" />
              <mxPoint x="390" y="190" />
            </Array>
          </mxGeometry>
        </mxCell>
        <mxCell id="bI7eu8botKNeIg27B3gn-41" value="" style="endArrow=none;html=1;rounded=0;" edge="1" parent="1">
          <mxGeometry width="50" height="50" relative="1" as="geometry">
            <mxPoint x="590" y="250" as="sourcePoint" />
            <mxPoint x="590" y="190" as="targetPoint" />
            <Array as="points">
              <mxPoint x="610" y="250" />
              <mxPoint x="610" y="190" />
            </Array>
          </mxGeometry>
        </mxCell>
        <mxCell id="bI7eu8botKNeIg27B3gn-43" value="" style="endArrow=none;html=1;rounded=0;" edge="1" parent="1">
          <mxGeometry width="50" height="50" relative="1" as="geometry">
            <mxPoint x="650" y="250" as="sourcePoint" />
            <mxPoint x="650" y="190" as="targetPoint" />
            <Array as="points">
              <mxPoint x="630" y="250" />
              <mxPoint x="630" y="190" />
            </Array>
          </mxGeometry>
        </mxCell>
        <mxCell id="bI7eu8botKNeIg27B3gn-44" value="5" style="ellipse;whiteSpace=wrap;html=1;aspect=fixed;" vertex="1" parent="1">
          <mxGeometry x="80" y="300" width="40" height="40" as="geometry" />
        </mxCell>
        <mxCell id="bI7eu8botKNeIg27B3gn-45" value="8" style="ellipse;whiteSpace=wrap;html=1;aspect=fixed;" vertex="1" parent="1">
          <mxGeometry y="300" width="40" height="40" as="geometry" />
        </mxCell>
        <mxCell id="bI7eu8botKNeIg27B3gn-136" style="edgeStyle=orthogonalEdgeStyle;rounded=0;orthogonalLoop=1;jettySize=auto;html=1;exitX=0.5;exitY=1;exitDx=0;exitDy=0;entryX=0.5;entryY=0;entryDx=0;entryDy=0;curved=1;" edge="1" parent="1" source="bI7eu8botKNeIg27B3gn-46" target="bI7eu8botKNeIg27B3gn-133">
          <mxGeometry relative="1" as="geometry">
            <Array as="points">
              <mxPoint x="180" y="580" />
              <mxPoint x="20" y="580" />
            </Array>
          </mxGeometry>
        </mxCell>
        <mxCell id="bI7eu8botKNeIg27B3gn-46" value="1" style="ellipse;whiteSpace=wrap;html=1;aspect=fixed;" vertex="1" parent="1">
          <mxGeometry x="160" y="300" width="40" height="40" as="geometry" />
        </mxCell>
        <mxCell id="bI7eu8botKNeIg27B3gn-47" value="" style="endArrow=none;html=1;rounded=0;" edge="1" parent="1">
          <mxGeometry width="50" height="50" relative="1" as="geometry">
            <mxPoint x="10" y="350" as="sourcePoint" />
            <mxPoint x="10" y="290" as="targetPoint" />
            <Array as="points">
              <mxPoint x="-10" y="350" />
              <mxPoint x="-10" y="290" />
            </Array>
          </mxGeometry>
        </mxCell>
        <mxCell id="bI7eu8botKNeIg27B3gn-48" value="" style="endArrow=none;html=1;rounded=0;" edge="1" parent="1">
          <mxGeometry width="50" height="50" relative="1" as="geometry">
            <mxPoint x="190" y="350" as="sourcePoint" />
            <mxPoint x="190" y="290" as="targetPoint" />
            <Array as="points">
              <mxPoint x="210" y="350" />
              <mxPoint x="210" y="290" />
            </Array>
          </mxGeometry>
        </mxCell>
        <mxCell id="bI7eu8botKNeIg27B3gn-49" value="7" style="ellipse;whiteSpace=wrap;html=1;aspect=fixed;" vertex="1" parent="1">
          <mxGeometry x="480" y="300" width="40" height="40" as="geometry" />
        </mxCell>
        <mxCell id="bI7eu8botKNeIg27B3gn-50" value="6" style="ellipse;whiteSpace=wrap;html=1;aspect=fixed;" vertex="1" parent="1">
          <mxGeometry x="400" y="300" width="40" height="40" as="geometry" />
        </mxCell>
        <mxCell id="bI7eu8botKNeIg27B3gn-180" style="edgeStyle=orthogonalEdgeStyle;rounded=0;orthogonalLoop=1;jettySize=auto;html=1;exitX=0.5;exitY=1;exitDx=0;exitDy=0;entryX=0.5;entryY=0;entryDx=0;entryDy=0;curved=1;" edge="1" parent="1" source="bI7eu8botKNeIg27B3gn-51" target="bI7eu8botKNeIg27B3gn-164">
          <mxGeometry relative="1" as="geometry">
            <Array as="points">
              <mxPoint x="580" y="580" />
              <mxPoint x="420" y="580" />
            </Array>
          </mxGeometry>
        </mxCell>
        <mxCell id="bI7eu8botKNeIg27B3gn-51" value="1" style="ellipse;whiteSpace=wrap;html=1;aspect=fixed;" vertex="1" parent="1">
          <mxGeometry x="560" y="300" width="40" height="40" as="geometry" />
        </mxCell>
        <mxCell id="bI7eu8botKNeIg27B3gn-52" value="" style="endArrow=none;html=1;rounded=0;" edge="1" parent="1">
          <mxGeometry width="50" height="50" relative="1" as="geometry">
            <mxPoint x="410" y="350" as="sourcePoint" />
            <mxPoint x="410" y="290" as="targetPoint" />
            <Array as="points">
              <mxPoint x="390" y="350" />
              <mxPoint x="390" y="290" />
            </Array>
          </mxGeometry>
        </mxCell>
        <mxCell id="bI7eu8botKNeIg27B3gn-53" value="" style="endArrow=none;html=1;rounded=0;" edge="1" parent="1">
          <mxGeometry width="50" height="50" relative="1" as="geometry">
            <mxPoint x="590" y="350" as="sourcePoint" />
            <mxPoint x="590" y="290" as="targetPoint" />
            <Array as="points">
              <mxPoint x="610" y="350" />
              <mxPoint x="610" y="290" />
            </Array>
          </mxGeometry>
        </mxCell>
        <mxCell id="bI7eu8botKNeIg27B3gn-59" value="" style="endArrow=none;html=1;rounded=0;" edge="1" parent="1">
          <mxGeometry width="50" height="50" relative="1" as="geometry">
            <mxPoint x="110" y="350" as="sourcePoint" />
            <mxPoint x="110" y="290" as="targetPoint" />
            <Array as="points">
              <mxPoint x="130" y="350" />
              <mxPoint x="130" y="290" />
            </Array>
          </mxGeometry>
        </mxCell>
        <mxCell id="bI7eu8botKNeIg27B3gn-60" value="" style="endArrow=none;html=1;rounded=0;" edge="1" parent="1">
          <mxGeometry width="50" height="50" relative="1" as="geometry">
            <mxPoint x="170" y="350" as="sourcePoint" />
            <mxPoint x="170" y="290" as="targetPoint" />
            <Array as="points">
              <mxPoint x="150" y="350" />
              <mxPoint x="150" y="290" />
            </Array>
          </mxGeometry>
        </mxCell>
        <mxCell id="bI7eu8botKNeIg27B3gn-62" value="" style="endArrow=none;html=1;rounded=0;" edge="1" parent="1">
          <mxGeometry width="50" height="50" relative="1" as="geometry">
            <mxPoint x="510" y="350" as="sourcePoint" />
            <mxPoint x="510" y="290" as="targetPoint" />
            <Array as="points">
              <mxPoint x="530" y="350" />
              <mxPoint x="530" y="290" />
            </Array>
          </mxGeometry>
        </mxCell>
        <mxCell id="bI7eu8botKNeIg27B3gn-63" value="" style="endArrow=classic;html=1;rounded=0;" edge="1" parent="1">
          <mxGeometry width="50" height="50" relative="1" as="geometry">
            <mxPoint x="380" y="40" as="sourcePoint" />
            <mxPoint x="180" y="90" as="targetPoint" />
          </mxGeometry>
        </mxCell>
        <mxCell id="bI7eu8botKNeIg27B3gn-64" value="" style="endArrow=classic;html=1;rounded=0;" edge="1" parent="1">
          <mxGeometry width="50" height="50" relative="1" as="geometry">
            <mxPoint x="380" y="40" as="sourcePoint" />
            <mxPoint x="580" y="90" as="targetPoint" />
          </mxGeometry>
        </mxCell>
        <mxCell id="bI7eu8botKNeIg27B3gn-65" value="" style="endArrow=classic;html=1;rounded=0;" edge="1" parent="1">
          <mxGeometry width="50" height="50" relative="1" as="geometry">
            <mxPoint x="180" y="150" as="sourcePoint" />
            <mxPoint x="100" y="190" as="targetPoint" />
          </mxGeometry>
        </mxCell>
        <mxCell id="bI7eu8botKNeIg27B3gn-66" value="" style="endArrow=classic;html=1;rounded=0;" edge="1" parent="1">
          <mxGeometry width="50" height="50" relative="1" as="geometry">
            <mxPoint x="180" y="150" as="sourcePoint" />
            <mxPoint x="300" y="190" as="targetPoint" />
          </mxGeometry>
        </mxCell>
        <mxCell id="bI7eu8botKNeIg27B3gn-67" value="" style="endArrow=classic;html=1;rounded=0;" edge="1" parent="1">
          <mxGeometry width="50" height="50" relative="1" as="geometry">
            <mxPoint x="580" y="150" as="sourcePoint" />
            <mxPoint x="700" y="190" as="targetPoint" />
          </mxGeometry>
        </mxCell>
        <mxCell id="bI7eu8botKNeIg27B3gn-68" value="" style="endArrow=classic;html=1;rounded=0;" edge="1" parent="1">
          <mxGeometry width="50" height="50" relative="1" as="geometry">
            <mxPoint x="580" y="150" as="sourcePoint" />
            <mxPoint x="500" y="190" as="targetPoint" />
          </mxGeometry>
        </mxCell>
        <mxCell id="bI7eu8botKNeIg27B3gn-69" value="" style="endArrow=classic;html=1;rounded=0;" edge="1" parent="1">
          <mxGeometry width="50" height="50" relative="1" as="geometry">
            <mxPoint x="100" y="250" as="sourcePoint" />
            <mxPoint x="60" y="290" as="targetPoint" />
          </mxGeometry>
        </mxCell>
        <mxCell id="bI7eu8botKNeIg27B3gn-70" value="" style="endArrow=classic;html=1;rounded=0;" edge="1" parent="1">
          <mxGeometry width="50" height="50" relative="1" as="geometry">
            <mxPoint x="510" y="250" as="sourcePoint" />
            <mxPoint x="460" y="290" as="targetPoint" />
          </mxGeometry>
        </mxCell>
        <mxCell id="bI7eu8botKNeIg27B3gn-71" value="" style="endArrow=classic;html=1;rounded=0;" edge="1" parent="1">
          <mxGeometry width="50" height="50" relative="1" as="geometry">
            <mxPoint x="510" y="250" as="sourcePoint" />
            <mxPoint x="580" y="290" as="targetPoint" />
          </mxGeometry>
        </mxCell>
        <mxCell id="bI7eu8botKNeIg27B3gn-72" value="" style="endArrow=classic;html=1;rounded=0;" edge="1" parent="1">
          <mxGeometry width="50" height="50" relative="1" as="geometry">
            <mxPoint x="100" y="250" as="sourcePoint" />
            <mxPoint x="180" y="290" as="targetPoint" />
          </mxGeometry>
        </mxCell>
        <mxCell id="bI7eu8botKNeIg27B3gn-80" value="" style="endArrow=none;html=1;rounded=0;" edge="1" parent="1">
          <mxGeometry width="50" height="50" relative="1" as="geometry">
            <mxPoint x="570" y="350" as="sourcePoint" />
            <mxPoint x="570" y="290" as="targetPoint" />
            <Array as="points">
              <mxPoint x="550" y="350" />
              <mxPoint x="550" y="290" />
            </Array>
          </mxGeometry>
        </mxCell>
        <mxCell id="bI7eu8botKNeIg27B3gn-143" style="edgeStyle=orthogonalEdgeStyle;rounded=0;orthogonalLoop=1;jettySize=auto;html=1;exitX=0.5;exitY=1;exitDx=0;exitDy=0;" edge="1" parent="1" source="bI7eu8botKNeIg27B3gn-81" target="bI7eu8botKNeIg27B3gn-137">
          <mxGeometry relative="1" as="geometry" />
        </mxCell>
        <mxCell id="bI7eu8botKNeIg27B3gn-81" value="4" style="ellipse;whiteSpace=wrap;html=1;aspect=fixed;" vertex="1" parent="1">
          <mxGeometry x="240" y="300" width="40" height="40" as="geometry" />
        </mxCell>
        <mxCell id="bI7eu8botKNeIg27B3gn-144" style="edgeStyle=orthogonalEdgeStyle;rounded=0;orthogonalLoop=1;jettySize=auto;html=1;exitX=0.5;exitY=1;exitDx=0;exitDy=0;entryX=0.5;entryY=0;entryDx=0;entryDy=0;" edge="1" parent="1" source="bI7eu8botKNeIg27B3gn-82" target="bI7eu8botKNeIg27B3gn-138">
          <mxGeometry relative="1" as="geometry" />
        </mxCell>
        <mxCell id="bI7eu8botKNeIg27B3gn-82" value="10" style="ellipse;whiteSpace=wrap;html=1;aspect=fixed;" vertex="1" parent="1">
          <mxGeometry x="320" y="300" width="40" height="40" as="geometry" />
        </mxCell>
        <mxCell id="bI7eu8botKNeIg27B3gn-83" value="" style="endArrow=none;html=1;rounded=0;" edge="1" parent="1">
          <mxGeometry width="50" height="50" relative="1" as="geometry">
            <mxPoint x="350" y="350" as="sourcePoint" />
            <mxPoint x="350" y="290" as="targetPoint" />
            <Array as="points">
              <mxPoint x="370" y="350" />
              <mxPoint x="370" y="290" />
            </Array>
          </mxGeometry>
        </mxCell>
        <mxCell id="bI7eu8botKNeIg27B3gn-84" value="" style="endArrow=none;html=1;rounded=0;" edge="1" parent="1">
          <mxGeometry width="50" height="50" relative="1" as="geometry">
            <mxPoint x="250" y="350" as="sourcePoint" />
            <mxPoint x="250" y="290" as="targetPoint" />
            <Array as="points">
              <mxPoint x="230" y="350" />
              <mxPoint x="230" y="290" />
            </Array>
          </mxGeometry>
        </mxCell>
        <mxCell id="bI7eu8botKNeIg27B3gn-181" style="edgeStyle=orthogonalEdgeStyle;rounded=0;orthogonalLoop=1;jettySize=auto;html=1;exitX=0.5;exitY=1;exitDx=0;exitDy=0;" edge="1" parent="1" source="bI7eu8botKNeIg27B3gn-85" target="bI7eu8botKNeIg27B3gn-167">
          <mxGeometry relative="1" as="geometry" />
        </mxCell>
        <mxCell id="bI7eu8botKNeIg27B3gn-85" value="4" style="ellipse;whiteSpace=wrap;html=1;aspect=fixed;" vertex="1" parent="1">
          <mxGeometry x="640" y="300" width="40" height="40" as="geometry" />
        </mxCell>
        <mxCell id="bI7eu8botKNeIg27B3gn-182" style="edgeStyle=orthogonalEdgeStyle;rounded=0;orthogonalLoop=1;jettySize=auto;html=1;exitX=0.5;exitY=1;exitDx=0;exitDy=0;" edge="1" parent="1" source="bI7eu8botKNeIg27B3gn-86" target="bI7eu8botKNeIg27B3gn-168">
          <mxGeometry relative="1" as="geometry" />
        </mxCell>
        <mxCell id="bI7eu8botKNeIg27B3gn-86" value="6" style="ellipse;whiteSpace=wrap;html=1;aspect=fixed;" vertex="1" parent="1">
          <mxGeometry x="720" y="300" width="40" height="40" as="geometry" />
        </mxCell>
        <mxCell id="bI7eu8botKNeIg27B3gn-87" value="" style="endArrow=none;html=1;rounded=0;" edge="1" parent="1">
          <mxGeometry width="50" height="50" relative="1" as="geometry">
            <mxPoint x="750" y="350" as="sourcePoint" />
            <mxPoint x="750" y="290" as="targetPoint" />
            <Array as="points">
              <mxPoint x="770" y="350" />
              <mxPoint x="770" y="290" />
            </Array>
          </mxGeometry>
        </mxCell>
        <mxCell id="bI7eu8botKNeIg27B3gn-88" value="" style="endArrow=none;html=1;rounded=0;" edge="1" parent="1">
          <mxGeometry width="50" height="50" relative="1" as="geometry">
            <mxPoint x="650" y="350" as="sourcePoint" />
            <mxPoint x="650" y="290" as="targetPoint" />
            <Array as="points">
              <mxPoint x="630" y="350" />
              <mxPoint x="630" y="290" />
            </Array>
          </mxGeometry>
        </mxCell>
        <mxCell id="bI7eu8botKNeIg27B3gn-89" value="" style="endArrow=classic;html=1;rounded=0;" edge="1" parent="1">
          <mxGeometry width="50" height="50" relative="1" as="geometry">
            <mxPoint x="300" y="250" as="sourcePoint" />
            <mxPoint x="260" y="290" as="targetPoint" />
          </mxGeometry>
        </mxCell>
        <mxCell id="bI7eu8botKNeIg27B3gn-90" value="" style="endArrow=classic;html=1;rounded=0;" edge="1" parent="1">
          <mxGeometry width="50" height="50" relative="1" as="geometry">
            <mxPoint x="300" y="250" as="sourcePoint" />
            <mxPoint x="340" y="290" as="targetPoint" />
          </mxGeometry>
        </mxCell>
        <mxCell id="bI7eu8botKNeIg27B3gn-91" value="" style="endArrow=none;html=1;rounded=0;" edge="1" parent="1">
          <mxGeometry width="50" height="50" relative="1" as="geometry">
            <mxPoint x="330" y="350" as="sourcePoint" />
            <mxPoint x="330" y="290" as="targetPoint" />
            <Array as="points">
              <mxPoint x="310" y="350" />
              <mxPoint x="310" y="290" />
            </Array>
          </mxGeometry>
        </mxCell>
        <mxCell id="bI7eu8botKNeIg27B3gn-92" value="" style="endArrow=none;html=1;rounded=0;" edge="1" parent="1">
          <mxGeometry width="50" height="50" relative="1" as="geometry">
            <mxPoint x="270" y="350" as="sourcePoint" />
            <mxPoint x="270" y="290" as="targetPoint" />
            <Array as="points">
              <mxPoint x="290" y="350" />
              <mxPoint x="290" y="290" />
            </Array>
          </mxGeometry>
        </mxCell>
        <mxCell id="bI7eu8botKNeIg27B3gn-93" value="" style="endArrow=classic;html=1;rounded=0;" edge="1" parent="1">
          <mxGeometry width="50" height="50" relative="1" as="geometry">
            <mxPoint x="700" y="250" as="sourcePoint" />
            <mxPoint x="660" y="290" as="targetPoint" />
          </mxGeometry>
        </mxCell>
        <mxCell id="bI7eu8botKNeIg27B3gn-94" value="" style="endArrow=classic;html=1;rounded=0;" edge="1" parent="1">
          <mxGeometry width="50" height="50" relative="1" as="geometry">
            <mxPoint x="700" y="250" as="sourcePoint" />
            <mxPoint x="740" y="290" as="targetPoint" />
          </mxGeometry>
        </mxCell>
        <mxCell id="bI7eu8botKNeIg27B3gn-95" value="" style="endArrow=none;html=1;rounded=0;" edge="1" parent="1">
          <mxGeometry width="50" height="50" relative="1" as="geometry">
            <mxPoint x="670" y="350" as="sourcePoint" />
            <mxPoint x="670" y="290" as="targetPoint" />
            <Array as="points">
              <mxPoint x="690" y="350" />
              <mxPoint x="690" y="290" />
            </Array>
          </mxGeometry>
        </mxCell>
        <mxCell id="bI7eu8botKNeIg27B3gn-96" value="" style="endArrow=none;html=1;rounded=0;" edge="1" parent="1">
          <mxGeometry width="50" height="50" relative="1" as="geometry">
            <mxPoint x="730" y="350" as="sourcePoint" />
            <mxPoint x="730" y="290" as="targetPoint" />
            <Array as="points">
              <mxPoint x="710" y="350" />
              <mxPoint x="710" y="290" />
            </Array>
          </mxGeometry>
        </mxCell>
        <mxCell id="bI7eu8botKNeIg27B3gn-126" style="edgeStyle=orthogonalEdgeStyle;rounded=0;orthogonalLoop=1;jettySize=auto;html=1;exitX=0.5;exitY=1;exitDx=0;exitDy=0;entryX=0.5;entryY=0;entryDx=0;entryDy=0;curved=1;" edge="1" parent="1" source="bI7eu8botKNeIg27B3gn-97" target="bI7eu8botKNeIg27B3gn-113">
          <mxGeometry relative="1" as="geometry">
            <Array as="points">
              <mxPoint x="20" y="470" />
              <mxPoint x="100" y="470" />
            </Array>
          </mxGeometry>
        </mxCell>
        <mxCell id="bI7eu8botKNeIg27B3gn-97" value="8" style="ellipse;whiteSpace=wrap;html=1;aspect=fixed;" vertex="1" parent="1">
          <mxGeometry y="400" width="40" height="40" as="geometry" />
        </mxCell>
        <mxCell id="bI7eu8botKNeIg27B3gn-125" style="edgeStyle=orthogonalEdgeStyle;rounded=0;orthogonalLoop=1;jettySize=auto;html=1;exitX=0.5;exitY=1;exitDx=0;exitDy=0;entryX=0.5;entryY=0;entryDx=0;entryDy=0;curved=1;" edge="1" parent="1" source="bI7eu8botKNeIg27B3gn-98" target="bI7eu8botKNeIg27B3gn-114">
          <mxGeometry relative="1" as="geometry">
            <Array as="points">
              <mxPoint x="100" y="490" />
              <mxPoint x="20" y="490" />
            </Array>
          </mxGeometry>
        </mxCell>
        <mxCell id="bI7eu8botKNeIg27B3gn-98" value="5" style="ellipse;whiteSpace=wrap;html=1;aspect=fixed;" vertex="1" parent="1">
          <mxGeometry x="80" y="400" width="40" height="40" as="geometry" />
        </mxCell>
        <mxCell id="bI7eu8botKNeIg27B3gn-99" value="" style="endArrow=none;html=1;rounded=0;" edge="1" parent="1">
          <mxGeometry width="50" height="50" relative="1" as="geometry">
            <mxPoint x="110" y="450" as="sourcePoint" />
            <mxPoint x="110" y="390" as="targetPoint" />
            <Array as="points">
              <mxPoint x="130" y="450" />
              <mxPoint x="130" y="390" />
            </Array>
          </mxGeometry>
        </mxCell>
        <mxCell id="bI7eu8botKNeIg27B3gn-100" value="" style="endArrow=none;html=1;rounded=0;" edge="1" parent="1">
          <mxGeometry width="50" height="50" relative="1" as="geometry">
            <mxPoint x="10" y="450" as="sourcePoint" />
            <mxPoint x="10" y="390" as="targetPoint" />
            <Array as="points">
              <mxPoint x="-10" y="450" />
              <mxPoint x="-10" y="390" />
            </Array>
          </mxGeometry>
        </mxCell>
        <mxCell id="bI7eu8botKNeIg27B3gn-101" value="" style="endArrow=classic;html=1;rounded=0;" edge="1" parent="1">
          <mxGeometry width="50" height="50" relative="1" as="geometry">
            <mxPoint x="60" y="350" as="sourcePoint" />
            <mxPoint x="20" y="390" as="targetPoint" />
          </mxGeometry>
        </mxCell>
        <mxCell id="bI7eu8botKNeIg27B3gn-102" value="" style="endArrow=classic;html=1;rounded=0;" edge="1" parent="1">
          <mxGeometry width="50" height="50" relative="1" as="geometry">
            <mxPoint x="60" y="350" as="sourcePoint" />
            <mxPoint x="100" y="390" as="targetPoint" />
          </mxGeometry>
        </mxCell>
        <mxCell id="bI7eu8botKNeIg27B3gn-103" value="" style="endArrow=none;html=1;rounded=0;" edge="1" parent="1">
          <mxGeometry width="50" height="50" relative="1" as="geometry">
            <mxPoint x="30" y="450" as="sourcePoint" />
            <mxPoint x="30" y="390" as="targetPoint" />
            <Array as="points">
              <mxPoint x="50" y="450" />
              <mxPoint x="50" y="390" />
            </Array>
          </mxGeometry>
        </mxCell>
        <mxCell id="bI7eu8botKNeIg27B3gn-104" value="" style="endArrow=none;html=1;rounded=0;" edge="1" parent="1">
          <mxGeometry width="50" height="50" relative="1" as="geometry">
            <mxPoint x="90" y="450" as="sourcePoint" />
            <mxPoint x="90" y="390" as="targetPoint" />
            <Array as="points">
              <mxPoint x="70" y="450" />
              <mxPoint x="70" y="390" />
            </Array>
          </mxGeometry>
        </mxCell>
        <mxCell id="bI7eu8botKNeIg27B3gn-127" style="edgeStyle=orthogonalEdgeStyle;rounded=0;orthogonalLoop=1;jettySize=auto;html=1;exitX=0.5;exitY=1;exitDx=0;exitDy=0;" edge="1" parent="1" source="bI7eu8botKNeIg27B3gn-105" target="bI7eu8botKNeIg27B3gn-119">
          <mxGeometry relative="1" as="geometry" />
        </mxCell>
        <mxCell id="bI7eu8botKNeIg27B3gn-105" value="6" style="ellipse;whiteSpace=wrap;html=1;aspect=fixed;" vertex="1" parent="1">
          <mxGeometry x="400" y="400" width="40" height="40" as="geometry" />
        </mxCell>
        <mxCell id="bI7eu8botKNeIg27B3gn-128" style="edgeStyle=orthogonalEdgeStyle;rounded=0;orthogonalLoop=1;jettySize=auto;html=1;exitX=0.5;exitY=1;exitDx=0;exitDy=0;entryX=0.5;entryY=0;entryDx=0;entryDy=0;" edge="1" parent="1" source="bI7eu8botKNeIg27B3gn-106" target="bI7eu8botKNeIg27B3gn-120">
          <mxGeometry relative="1" as="geometry" />
        </mxCell>
        <mxCell id="bI7eu8botKNeIg27B3gn-106" value="7" style="ellipse;whiteSpace=wrap;html=1;aspect=fixed;" vertex="1" parent="1">
          <mxGeometry x="480" y="400" width="40" height="40" as="geometry" />
        </mxCell>
        <mxCell id="bI7eu8botKNeIg27B3gn-107" value="" style="endArrow=none;html=1;rounded=0;" edge="1" parent="1">
          <mxGeometry width="50" height="50" relative="1" as="geometry">
            <mxPoint x="510" y="450" as="sourcePoint" />
            <mxPoint x="510" y="390" as="targetPoint" />
            <Array as="points">
              <mxPoint x="530" y="450" />
              <mxPoint x="530" y="390" />
            </Array>
          </mxGeometry>
        </mxCell>
        <mxCell id="bI7eu8botKNeIg27B3gn-108" value="" style="endArrow=none;html=1;rounded=0;" edge="1" parent="1">
          <mxGeometry width="50" height="50" relative="1" as="geometry">
            <mxPoint x="410" y="450" as="sourcePoint" />
            <mxPoint x="410" y="390" as="targetPoint" />
            <Array as="points">
              <mxPoint x="390" y="450" />
              <mxPoint x="390" y="390" />
            </Array>
          </mxGeometry>
        </mxCell>
        <mxCell id="bI7eu8botKNeIg27B3gn-109" value="" style="endArrow=classic;html=1;rounded=0;" edge="1" parent="1">
          <mxGeometry width="50" height="50" relative="1" as="geometry">
            <mxPoint x="460" y="350" as="sourcePoint" />
            <mxPoint x="420" y="390" as="targetPoint" />
          </mxGeometry>
        </mxCell>
        <mxCell id="bI7eu8botKNeIg27B3gn-110" value="" style="endArrow=classic;html=1;rounded=0;" edge="1" parent="1">
          <mxGeometry width="50" height="50" relative="1" as="geometry">
            <mxPoint x="460" y="350" as="sourcePoint" />
            <mxPoint x="500" y="390" as="targetPoint" />
          </mxGeometry>
        </mxCell>
        <mxCell id="bI7eu8botKNeIg27B3gn-111" value="" style="endArrow=none;html=1;rounded=0;" edge="1" parent="1">
          <mxGeometry width="50" height="50" relative="1" as="geometry">
            <mxPoint x="430" y="450" as="sourcePoint" />
            <mxPoint x="430" y="390" as="targetPoint" />
            <Array as="points">
              <mxPoint x="450" y="450" />
              <mxPoint x="450" y="390" />
            </Array>
          </mxGeometry>
        </mxCell>
        <mxCell id="bI7eu8botKNeIg27B3gn-112" value="" style="endArrow=none;html=1;rounded=0;" edge="1" parent="1">
          <mxGeometry width="50" height="50" relative="1" as="geometry">
            <mxPoint x="490" y="450" as="sourcePoint" />
            <mxPoint x="490" y="390" as="targetPoint" />
            <Array as="points">
              <mxPoint x="470" y="450" />
              <mxPoint x="470" y="390" />
            </Array>
          </mxGeometry>
        </mxCell>
        <mxCell id="bI7eu8botKNeIg27B3gn-135" style="edgeStyle=orthogonalEdgeStyle;rounded=0;orthogonalLoop=1;jettySize=auto;html=1;exitX=0.5;exitY=1;exitDx=0;exitDy=0;entryX=0.5;entryY=0;entryDx=0;entryDy=0;curved=1;" edge="1" parent="1" source="bI7eu8botKNeIg27B3gn-113" target="bI7eu8botKNeIg27B3gn-129">
          <mxGeometry relative="1" as="geometry">
            <Array as="points">
              <mxPoint x="100" y="560" />
              <mxPoint x="180" y="560" />
            </Array>
          </mxGeometry>
        </mxCell>
        <mxCell id="bI7eu8botKNeIg27B3gn-113" value="8" style="ellipse;whiteSpace=wrap;html=1;aspect=fixed;fillColor=#d5e8d4;strokeColor=#82b366;" vertex="1" parent="1">
          <mxGeometry x="80" y="500" width="40" height="40" as="geometry" />
        </mxCell>
        <mxCell id="bI7eu8botKNeIg27B3gn-134" style="edgeStyle=orthogonalEdgeStyle;rounded=0;orthogonalLoop=1;jettySize=auto;html=1;exitX=0.5;exitY=1;exitDx=0;exitDy=0;entryX=0.5;entryY=0;entryDx=0;entryDy=0;curved=1;" edge="1" parent="1" source="bI7eu8botKNeIg27B3gn-114" target="bI7eu8botKNeIg27B3gn-130">
          <mxGeometry relative="1" as="geometry">
            <Array as="points">
              <mxPoint x="20" y="560" />
              <mxPoint x="100" y="560" />
            </Array>
          </mxGeometry>
        </mxCell>
        <mxCell id="bI7eu8botKNeIg27B3gn-114" value="5" style="ellipse;whiteSpace=wrap;html=1;aspect=fixed;fillColor=#d5e8d4;strokeColor=#82b366;" vertex="1" parent="1">
          <mxGeometry y="500" width="40" height="40" as="geometry" />
        </mxCell>
        <mxCell id="bI7eu8botKNeIg27B3gn-115" value="" style="endArrow=none;html=1;rounded=0;" edge="1" parent="1">
          <mxGeometry width="50" height="50" relative="1" as="geometry">
            <mxPoint x="110" y="550" as="sourcePoint" />
            <mxPoint x="110" y="490" as="targetPoint" />
            <Array as="points">
              <mxPoint x="130" y="550" />
              <mxPoint x="130" y="490" />
            </Array>
          </mxGeometry>
        </mxCell>
        <mxCell id="bI7eu8botKNeIg27B3gn-116" value="" style="endArrow=none;html=1;rounded=0;" edge="1" parent="1">
          <mxGeometry width="50" height="50" relative="1" as="geometry">
            <mxPoint x="10" y="550" as="sourcePoint" />
            <mxPoint x="10" y="490" as="targetPoint" />
            <Array as="points">
              <mxPoint x="-10" y="550" />
              <mxPoint x="-10" y="490" />
            </Array>
          </mxGeometry>
        </mxCell>
        <mxCell id="bI7eu8botKNeIg27B3gn-178" style="edgeStyle=orthogonalEdgeStyle;rounded=0;orthogonalLoop=1;jettySize=auto;html=1;exitX=0.5;exitY=1;exitDx=0;exitDy=0;entryX=0.5;entryY=0;entryDx=0;entryDy=0;curved=1;" edge="1" parent="1" source="bI7eu8botKNeIg27B3gn-119" target="bI7eu8botKNeIg27B3gn-173">
          <mxGeometry relative="1" as="geometry">
            <Array as="points">
              <mxPoint x="420" y="560" />
              <mxPoint x="500" y="560" />
            </Array>
          </mxGeometry>
        </mxCell>
        <mxCell id="bI7eu8botKNeIg27B3gn-119" value="6" style="ellipse;whiteSpace=wrap;html=1;aspect=fixed;fillColor=#d5e8d4;strokeColor=#82b366;" vertex="1" parent="1">
          <mxGeometry x="400" y="500" width="40" height="40" as="geometry" />
        </mxCell>
        <mxCell id="bI7eu8botKNeIg27B3gn-179" style="edgeStyle=orthogonalEdgeStyle;rounded=0;orthogonalLoop=1;jettySize=auto;html=1;exitX=0.5;exitY=1;exitDx=0;exitDy=0;curved=1;" edge="1" parent="1" source="bI7eu8botKNeIg27B3gn-120" target="bI7eu8botKNeIg27B3gn-174">
          <mxGeometry relative="1" as="geometry">
            <Array as="points">
              <mxPoint x="500" y="560" />
              <mxPoint x="580" y="560" />
            </Array>
          </mxGeometry>
        </mxCell>
        <mxCell id="bI7eu8botKNeIg27B3gn-120" value="7" style="ellipse;whiteSpace=wrap;html=1;aspect=fixed;fillColor=#d5e8d4;strokeColor=#82b366;" vertex="1" parent="1">
          <mxGeometry x="480" y="500" width="40" height="40" as="geometry" />
        </mxCell>
        <mxCell id="bI7eu8botKNeIg27B3gn-121" value="" style="endArrow=none;html=1;rounded=0;" edge="1" parent="1">
          <mxGeometry width="50" height="50" relative="1" as="geometry">
            <mxPoint x="510" y="550" as="sourcePoint" />
            <mxPoint x="510" y="490" as="targetPoint" />
            <Array as="points">
              <mxPoint x="530" y="550" />
              <mxPoint x="530" y="490" />
            </Array>
          </mxGeometry>
        </mxCell>
        <mxCell id="bI7eu8botKNeIg27B3gn-122" value="" style="endArrow=none;html=1;rounded=0;" edge="1" parent="1">
          <mxGeometry width="50" height="50" relative="1" as="geometry">
            <mxPoint x="410" y="550" as="sourcePoint" />
            <mxPoint x="410" y="490" as="targetPoint" />
            <Array as="points">
              <mxPoint x="390" y="550" />
              <mxPoint x="390" y="490" />
            </Array>
          </mxGeometry>
        </mxCell>
        <mxCell id="bI7eu8botKNeIg27B3gn-161" style="edgeStyle=orthogonalEdgeStyle;rounded=0;orthogonalLoop=1;jettySize=auto;html=1;exitX=0.5;exitY=1;exitDx=0;exitDy=0;entryX=0.5;entryY=0;entryDx=0;entryDy=0;curved=1;" edge="1" parent="1" source="bI7eu8botKNeIg27B3gn-129" target="bI7eu8botKNeIg27B3gn-149">
          <mxGeometry relative="1" as="geometry">
            <Array as="points">
              <mxPoint x="180" y="660" />
              <mxPoint x="260" y="660" />
            </Array>
          </mxGeometry>
        </mxCell>
        <mxCell id="bI7eu8botKNeIg27B3gn-129" value="8" style="ellipse;whiteSpace=wrap;html=1;aspect=fixed;fillColor=#d5e8d4;strokeColor=#82b366;" vertex="1" parent="1">
          <mxGeometry x="160" y="600" width="40" height="40" as="geometry" />
        </mxCell>
        <mxCell id="bI7eu8botKNeIg27B3gn-159" style="edgeStyle=orthogonalEdgeStyle;rounded=0;orthogonalLoop=1;jettySize=auto;html=1;exitX=0.5;exitY=1;exitDx=0;exitDy=0;entryX=0.5;entryY=0;entryDx=0;entryDy=0;curved=1;" edge="1" parent="1" source="bI7eu8botKNeIg27B3gn-130" target="bI7eu8botKNeIg27B3gn-150">
          <mxGeometry relative="1" as="geometry">
            <Array as="points">
              <mxPoint x="100" y="660" />
              <mxPoint x="180" y="660" />
            </Array>
          </mxGeometry>
        </mxCell>
        <mxCell id="bI7eu8botKNeIg27B3gn-130" value="5" style="ellipse;whiteSpace=wrap;html=1;aspect=fixed;fillColor=#d5e8d4;strokeColor=#82b366;" vertex="1" parent="1">
          <mxGeometry x="80" y="600" width="40" height="40" as="geometry" />
        </mxCell>
        <mxCell id="bI7eu8botKNeIg27B3gn-131" value="" style="endArrow=none;html=1;rounded=0;" edge="1" parent="1">
          <mxGeometry width="50" height="50" relative="1" as="geometry">
            <mxPoint x="190" y="650" as="sourcePoint" />
            <mxPoint x="190" y="590" as="targetPoint" />
            <Array as="points">
              <mxPoint x="210" y="650" />
              <mxPoint x="210" y="590" />
            </Array>
          </mxGeometry>
        </mxCell>
        <mxCell id="bI7eu8botKNeIg27B3gn-132" value="" style="endArrow=none;html=1;rounded=0;" edge="1" parent="1">
          <mxGeometry width="50" height="50" relative="1" as="geometry">
            <mxPoint x="10" y="650" as="sourcePoint" />
            <mxPoint x="10" y="590" as="targetPoint" />
            <Array as="points">
              <mxPoint x="-10" y="650" />
              <mxPoint x="-10" y="590" />
            </Array>
          </mxGeometry>
        </mxCell>
        <mxCell id="bI7eu8botKNeIg27B3gn-158" style="edgeStyle=orthogonalEdgeStyle;rounded=0;orthogonalLoop=1;jettySize=auto;html=1;exitX=0.5;exitY=1;exitDx=0;exitDy=0;entryX=0.5;entryY=0;entryDx=0;entryDy=0;" edge="1" parent="1" source="bI7eu8botKNeIg27B3gn-133" target="bI7eu8botKNeIg27B3gn-153">
          <mxGeometry relative="1" as="geometry" />
        </mxCell>
        <mxCell id="bI7eu8botKNeIg27B3gn-133" value="1" style="ellipse;whiteSpace=wrap;html=1;aspect=fixed;fillColor=#d5e8d4;strokeColor=#82b366;" vertex="1" parent="1">
          <mxGeometry y="600" width="40" height="40" as="geometry" />
        </mxCell>
        <mxCell id="bI7eu8botKNeIg27B3gn-137" value="4" style="ellipse;whiteSpace=wrap;html=1;aspect=fixed;fillColor=#d5e8d4;strokeColor=#82b366;" vertex="1" parent="1">
          <mxGeometry x="240" y="600" width="40" height="40" as="geometry" />
        </mxCell>
        <mxCell id="bI7eu8botKNeIg27B3gn-138" value="10" style="ellipse;whiteSpace=wrap;html=1;aspect=fixed;fillColor=#d5e8d4;strokeColor=#82b366;" vertex="1" parent="1">
          <mxGeometry x="320" y="600" width="40" height="40" as="geometry" />
        </mxCell>
        <mxCell id="bI7eu8botKNeIg27B3gn-139" value="" style="endArrow=none;html=1;rounded=0;" edge="1" parent="1">
          <mxGeometry width="50" height="50" relative="1" as="geometry">
            <mxPoint x="350" y="650" as="sourcePoint" />
            <mxPoint x="350" y="590" as="targetPoint" />
            <Array as="points">
              <mxPoint x="370" y="650" />
              <mxPoint x="370" y="590" />
            </Array>
          </mxGeometry>
        </mxCell>
        <mxCell id="bI7eu8botKNeIg27B3gn-140" value="" style="endArrow=none;html=1;rounded=0;" edge="1" parent="1">
          <mxGeometry width="50" height="50" relative="1" as="geometry">
            <mxPoint x="250" y="650" as="sourcePoint" />
            <mxPoint x="250" y="590" as="targetPoint" />
            <Array as="points">
              <mxPoint x="230" y="650" />
              <mxPoint x="230" y="590" />
            </Array>
          </mxGeometry>
        </mxCell>
        <mxCell id="bI7eu8botKNeIg27B3gn-162" style="edgeStyle=orthogonalEdgeStyle;rounded=0;orthogonalLoop=1;jettySize=auto;html=1;exitX=0.5;exitY=1;exitDx=0;exitDy=0;entryX=0.5;entryY=0;entryDx=0;entryDy=0;curved=1;" edge="1" parent="1" source="bI7eu8botKNeIg27B3gn-137" target="bI7eu8botKNeIg27B3gn-154">
          <mxGeometry relative="1" as="geometry">
            <mxPoint x="260" y="640" as="sourcePoint" />
            <Array as="points">
              <mxPoint x="260" y="680" />
              <mxPoint x="100" y="680" />
            </Array>
          </mxGeometry>
        </mxCell>
        <mxCell id="bI7eu8botKNeIg27B3gn-163" style="edgeStyle=orthogonalEdgeStyle;rounded=0;orthogonalLoop=1;jettySize=auto;html=1;exitX=0.5;exitY=1;exitDx=0;exitDy=0;" edge="1" parent="1" source="bI7eu8botKNeIg27B3gn-138" target="bI7eu8botKNeIg27B3gn-155">
          <mxGeometry relative="1" as="geometry">
            <mxPoint x="340" y="640" as="sourcePoint" />
          </mxGeometry>
        </mxCell>
        <mxCell id="bI7eu8botKNeIg27B3gn-214" style="edgeStyle=orthogonalEdgeStyle;rounded=0;orthogonalLoop=1;jettySize=auto;html=1;exitX=0.5;exitY=1;exitDx=0;exitDy=0;entryX=0.5;entryY=0;entryDx=0;entryDy=0;curved=1;" edge="1" parent="1" source="bI7eu8botKNeIg27B3gn-149" target="bI7eu8botKNeIg27B3gn-197">
          <mxGeometry relative="1" as="geometry">
            <Array as="points">
              <mxPoint x="260" y="770" />
              <mxPoint x="660" y="770" />
            </Array>
          </mxGeometry>
        </mxCell>
        <mxCell id="bI7eu8botKNeIg27B3gn-149" value="8" style="ellipse;whiteSpace=wrap;html=1;aspect=fixed;fillColor=#d5e8d4;strokeColor=#82b366;" vertex="1" parent="1">
          <mxGeometry x="240" y="700" width="40" height="40" as="geometry" />
        </mxCell>
        <mxCell id="bI7eu8botKNeIg27B3gn-213" style="edgeStyle=orthogonalEdgeStyle;rounded=0;orthogonalLoop=1;jettySize=auto;html=1;exitX=0.5;exitY=1;exitDx=0;exitDy=0;entryX=0.5;entryY=0;entryDx=0;entryDy=0;curved=1;" edge="1" parent="1" source="bI7eu8botKNeIg27B3gn-150" target="bI7eu8botKNeIg27B3gn-198">
          <mxGeometry relative="1" as="geometry">
            <Array as="points">
              <mxPoint x="180" y="770" />
              <mxPoint x="340" y="770" />
            </Array>
          </mxGeometry>
        </mxCell>
        <mxCell id="bI7eu8botKNeIg27B3gn-150" value="5" style="ellipse;whiteSpace=wrap;html=1;aspect=fixed;fillColor=#d5e8d4;strokeColor=#82b366;" vertex="1" parent="1">
          <mxGeometry x="160" y="700" width="40" height="40" as="geometry" />
        </mxCell>
        <mxCell id="bI7eu8botKNeIg27B3gn-152" value="" style="endArrow=none;html=1;rounded=0;" edge="1" parent="1">
          <mxGeometry width="50" height="50" relative="1" as="geometry">
            <mxPoint x="10" y="750" as="sourcePoint" />
            <mxPoint x="10" y="690" as="targetPoint" />
            <Array as="points">
              <mxPoint x="-10" y="750" />
              <mxPoint x="-10" y="690" />
            </Array>
          </mxGeometry>
        </mxCell>
        <mxCell id="bI7eu8botKNeIg27B3gn-211" style="edgeStyle=orthogonalEdgeStyle;rounded=0;orthogonalLoop=1;jettySize=auto;html=1;exitX=0.5;exitY=1;exitDx=0;exitDy=0;curved=1;" edge="1" parent="1" source="bI7eu8botKNeIg27B3gn-153" target="bI7eu8botKNeIg27B3gn-200">
          <mxGeometry relative="1" as="geometry" />
        </mxCell>
        <mxCell id="bI7eu8botKNeIg27B3gn-153" value="1" style="ellipse;whiteSpace=wrap;html=1;aspect=fixed;fillColor=#d5e8d4;strokeColor=#82b366;" vertex="1" parent="1">
          <mxGeometry y="700" width="40" height="40" as="geometry" />
        </mxCell>
        <mxCell id="bI7eu8botKNeIg27B3gn-212" style="edgeStyle=orthogonalEdgeStyle;rounded=0;orthogonalLoop=1;jettySize=auto;html=1;exitX=0.5;exitY=1;exitDx=0;exitDy=0;entryX=0.5;entryY=0;entryDx=0;entryDy=0;curved=1;" edge="1" parent="1" source="bI7eu8botKNeIg27B3gn-154" target="bI7eu8botKNeIg27B3gn-205">
          <mxGeometry relative="1" as="geometry">
            <Array as="points">
              <mxPoint x="100" y="760" />
              <mxPoint x="180" y="760" />
            </Array>
          </mxGeometry>
        </mxCell>
        <mxCell id="bI7eu8botKNeIg27B3gn-154" value="4" style="ellipse;whiteSpace=wrap;html=1;aspect=fixed;fillColor=#d5e8d4;strokeColor=#82b366;" vertex="1" parent="1">
          <mxGeometry x="80" y="700" width="40" height="40" as="geometry" />
        </mxCell>
        <mxCell id="bI7eu8botKNeIg27B3gn-215" style="edgeStyle=orthogonalEdgeStyle;rounded=0;orthogonalLoop=1;jettySize=auto;html=1;exitX=0.5;exitY=1;exitDx=0;exitDy=0;curved=1;" edge="1" parent="1" source="bI7eu8botKNeIg27B3gn-155" target="bI7eu8botKNeIg27B3gn-202">
          <mxGeometry relative="1" as="geometry">
            <Array as="points">
              <mxPoint x="340" y="760" />
              <mxPoint x="740" y="760" />
            </Array>
          </mxGeometry>
        </mxCell>
        <mxCell id="bI7eu8botKNeIg27B3gn-155" value="10" style="ellipse;whiteSpace=wrap;html=1;aspect=fixed;fillColor=#d5e8d4;strokeColor=#82b366;" vertex="1" parent="1">
          <mxGeometry x="320" y="700" width="40" height="40" as="geometry" />
        </mxCell>
        <mxCell id="bI7eu8botKNeIg27B3gn-156" value="" style="endArrow=none;html=1;rounded=0;" edge="1" parent="1">
          <mxGeometry width="50" height="50" relative="1" as="geometry">
            <mxPoint x="350" y="750" as="sourcePoint" />
            <mxPoint x="350" y="690" as="targetPoint" />
            <Array as="points">
              <mxPoint x="370" y="750" />
              <mxPoint x="370" y="690" />
            </Array>
          </mxGeometry>
        </mxCell>
        <mxCell id="bI7eu8botKNeIg27B3gn-192" style="edgeStyle=orthogonalEdgeStyle;rounded=0;orthogonalLoop=1;jettySize=auto;html=1;exitX=0.5;exitY=1;exitDx=0;exitDy=0;entryX=0.5;entryY=0;entryDx=0;entryDy=0;" edge="1" parent="1" source="bI7eu8botKNeIg27B3gn-164" target="bI7eu8botKNeIg27B3gn-183">
          <mxGeometry relative="1" as="geometry" />
        </mxCell>
        <mxCell id="bI7eu8botKNeIg27B3gn-164" value="1" style="ellipse;whiteSpace=wrap;html=1;aspect=fixed;fillColor=#d5e8d4;strokeColor=#82b366;" vertex="1" parent="1">
          <mxGeometry x="400" y="600" width="40" height="40" as="geometry" />
        </mxCell>
        <mxCell id="bI7eu8botKNeIg27B3gn-165" value="" style="endArrow=none;html=1;rounded=0;" edge="1" parent="1">
          <mxGeometry width="50" height="50" relative="1" as="geometry">
            <mxPoint x="590" y="650" as="sourcePoint" />
            <mxPoint x="590" y="590" as="targetPoint" />
            <Array as="points">
              <mxPoint x="610" y="650" />
              <mxPoint x="610" y="590" />
            </Array>
          </mxGeometry>
        </mxCell>
        <mxCell id="bI7eu8botKNeIg27B3gn-196" style="edgeStyle=orthogonalEdgeStyle;rounded=0;orthogonalLoop=1;jettySize=auto;html=1;exitX=0.5;exitY=1;exitDx=0;exitDy=0;entryX=0.5;entryY=0;entryDx=0;entryDy=0;curved=1;" edge="1" parent="1" source="bI7eu8botKNeIg27B3gn-167" target="bI7eu8botKNeIg27B3gn-185">
          <mxGeometry relative="1" as="geometry">
            <Array as="points">
              <mxPoint x="660" y="680" />
              <mxPoint x="500" y="680" />
            </Array>
          </mxGeometry>
        </mxCell>
        <mxCell id="bI7eu8botKNeIg27B3gn-167" value="4" style="ellipse;whiteSpace=wrap;html=1;aspect=fixed;fillColor=#d5e8d4;strokeColor=#82b366;" vertex="1" parent="1">
          <mxGeometry x="640" y="600" width="40" height="40" as="geometry" />
        </mxCell>
        <mxCell id="bI7eu8botKNeIg27B3gn-195" style="edgeStyle=orthogonalEdgeStyle;rounded=0;orthogonalLoop=1;jettySize=auto;html=1;exitX=0.5;exitY=1;exitDx=0;exitDy=0;entryX=0.5;entryY=0;entryDx=0;entryDy=0;curved=1;" edge="1" parent="1" source="bI7eu8botKNeIg27B3gn-168" target="bI7eu8botKNeIg27B3gn-189">
          <mxGeometry relative="1" as="geometry">
            <Array as="points">
              <mxPoint x="740" y="680" />
              <mxPoint x="660" y="680" />
            </Array>
          </mxGeometry>
        </mxCell>
        <mxCell id="bI7eu8botKNeIg27B3gn-168" value="6" style="ellipse;whiteSpace=wrap;html=1;aspect=fixed;fillColor=#d5e8d4;strokeColor=#82b366;" vertex="1" parent="1">
          <mxGeometry x="720" y="600" width="40" height="40" as="geometry" />
        </mxCell>
        <mxCell id="bI7eu8botKNeIg27B3gn-169" value="" style="endArrow=none;html=1;rounded=0;" edge="1" parent="1">
          <mxGeometry width="50" height="50" relative="1" as="geometry">
            <mxPoint x="750" y="650" as="sourcePoint" />
            <mxPoint x="750" y="590" as="targetPoint" />
            <Array as="points">
              <mxPoint x="770" y="650" />
              <mxPoint x="770" y="590" />
            </Array>
          </mxGeometry>
        </mxCell>
        <mxCell id="bI7eu8botKNeIg27B3gn-170" value="" style="endArrow=none;html=1;rounded=0;" edge="1" parent="1">
          <mxGeometry width="50" height="50" relative="1" as="geometry">
            <mxPoint x="650" y="650" as="sourcePoint" />
            <mxPoint x="650" y="590" as="targetPoint" />
            <Array as="points">
              <mxPoint x="630" y="650" />
              <mxPoint x="630" y="590" />
            </Array>
          </mxGeometry>
        </mxCell>
        <mxCell id="bI7eu8botKNeIg27B3gn-193" style="edgeStyle=orthogonalEdgeStyle;rounded=0;orthogonalLoop=1;jettySize=auto;html=1;exitX=0.5;exitY=1;exitDx=0;exitDy=0;curved=1;" edge="1" parent="1" source="bI7eu8botKNeIg27B3gn-173" target="bI7eu8botKNeIg27B3gn-186">
          <mxGeometry relative="1" as="geometry">
            <Array as="points">
              <mxPoint x="500" y="660" />
              <mxPoint x="580" y="660" />
            </Array>
          </mxGeometry>
        </mxCell>
        <mxCell id="bI7eu8botKNeIg27B3gn-173" value="6" style="ellipse;whiteSpace=wrap;html=1;aspect=fixed;fillColor=#d5e8d4;strokeColor=#82b366;" vertex="1" parent="1">
          <mxGeometry x="480" y="600" width="40" height="40" as="geometry" />
        </mxCell>
        <mxCell id="bI7eu8botKNeIg27B3gn-194" style="edgeStyle=orthogonalEdgeStyle;rounded=0;orthogonalLoop=1;jettySize=auto;html=1;exitX=0.5;exitY=1;exitDx=0;exitDy=0;curved=1;" edge="1" parent="1" source="bI7eu8botKNeIg27B3gn-174" target="bI7eu8botKNeIg27B3gn-190">
          <mxGeometry relative="1" as="geometry">
            <Array as="points">
              <mxPoint x="580" y="660" />
              <mxPoint x="740" y="660" />
            </Array>
          </mxGeometry>
        </mxCell>
        <mxCell id="bI7eu8botKNeIg27B3gn-174" value="7" style="ellipse;whiteSpace=wrap;html=1;aspect=fixed;fillColor=#d5e8d4;strokeColor=#82b366;" vertex="1" parent="1">
          <mxGeometry x="560" y="600" width="40" height="40" as="geometry" />
        </mxCell>
        <mxCell id="bI7eu8botKNeIg27B3gn-176" value="" style="endArrow=none;html=1;rounded=0;" edge="1" parent="1">
          <mxGeometry width="50" height="50" relative="1" as="geometry">
            <mxPoint x="410" y="650" as="sourcePoint" />
            <mxPoint x="410" y="590" as="targetPoint" />
            <Array as="points">
              <mxPoint x="390" y="650" />
              <mxPoint x="390" y="590" />
            </Array>
          </mxGeometry>
        </mxCell>
        <mxCell id="bI7eu8botKNeIg27B3gn-216" style="edgeStyle=orthogonalEdgeStyle;rounded=0;orthogonalLoop=1;jettySize=auto;html=1;exitX=0.5;exitY=1;exitDx=0;exitDy=0;curved=1;" edge="1" parent="1" source="bI7eu8botKNeIg27B3gn-183" target="bI7eu8botKNeIg27B3gn-204">
          <mxGeometry relative="1" as="geometry">
            <Array as="points">
              <mxPoint x="420" y="780" />
              <mxPoint x="100" y="780" />
            </Array>
          </mxGeometry>
        </mxCell>
        <mxCell id="bI7eu8botKNeIg27B3gn-183" value="1" style="ellipse;whiteSpace=wrap;html=1;aspect=fixed;fillColor=#d5e8d4;strokeColor=#82b366;" vertex="1" parent="1">
          <mxGeometry x="400" y="700" width="40" height="40" as="geometry" />
        </mxCell>
        <mxCell id="bI7eu8botKNeIg27B3gn-217" style="edgeStyle=orthogonalEdgeStyle;rounded=0;orthogonalLoop=1;jettySize=auto;html=1;exitX=0.5;exitY=1;exitDx=0;exitDy=0;curved=1;" edge="1" parent="1" source="bI7eu8botKNeIg27B3gn-185" target="bI7eu8botKNeIg27B3gn-201">
          <mxGeometry relative="1" as="geometry">
            <Array as="points">
              <mxPoint x="500" y="780" />
              <mxPoint x="260" y="780" />
            </Array>
          </mxGeometry>
        </mxCell>
        <mxCell id="bI7eu8botKNeIg27B3gn-185" value="4" style="ellipse;whiteSpace=wrap;html=1;aspect=fixed;fillColor=#d5e8d4;strokeColor=#82b366;" vertex="1" parent="1">
          <mxGeometry x="480" y="700" width="40" height="40" as="geometry" />
        </mxCell>
        <mxCell id="bI7eu8botKNeIg27B3gn-218" style="edgeStyle=orthogonalEdgeStyle;rounded=0;orthogonalLoop=1;jettySize=auto;html=1;exitX=0.5;exitY=1;exitDx=0;exitDy=0;curved=1;" edge="1" parent="1" source="bI7eu8botKNeIg27B3gn-186" target="bI7eu8botKNeIg27B3gn-206">
          <mxGeometry relative="1" as="geometry">
            <Array as="points">
              <mxPoint x="580" y="780" />
              <mxPoint x="420" y="780" />
            </Array>
          </mxGeometry>
        </mxCell>
        <mxCell id="bI7eu8botKNeIg27B3gn-186" value="6" style="ellipse;whiteSpace=wrap;html=1;aspect=fixed;fillColor=#d5e8d4;strokeColor=#82b366;" vertex="1" parent="1">
          <mxGeometry x="560" y="700" width="40" height="40" as="geometry" />
        </mxCell>
        <mxCell id="bI7eu8botKNeIg27B3gn-187" value="" style="endArrow=none;html=1;rounded=0;" edge="1" parent="1">
          <mxGeometry width="50" height="50" relative="1" as="geometry">
            <mxPoint x="750" y="750" as="sourcePoint" />
            <mxPoint x="750" y="690" as="targetPoint" />
            <Array as="points">
              <mxPoint x="770" y="750" />
              <mxPoint x="770" y="690" />
            </Array>
          </mxGeometry>
        </mxCell>
        <mxCell id="bI7eu8botKNeIg27B3gn-219" style="edgeStyle=orthogonalEdgeStyle;rounded=0;orthogonalLoop=1;jettySize=auto;html=1;exitX=0.5;exitY=1;exitDx=0;exitDy=0;curved=1;" edge="1" parent="1" source="bI7eu8botKNeIg27B3gn-189" target="bI7eu8botKNeIg27B3gn-208">
          <mxGeometry relative="1" as="geometry">
            <Array as="points">
              <mxPoint x="660" y="780" />
              <mxPoint x="500" y="780" />
            </Array>
          </mxGeometry>
        </mxCell>
        <mxCell id="bI7eu8botKNeIg27B3gn-189" value="6" style="ellipse;whiteSpace=wrap;html=1;aspect=fixed;fillColor=#d5e8d4;strokeColor=#82b366;" vertex="1" parent="1">
          <mxGeometry x="640" y="700" width="40" height="40" as="geometry" />
        </mxCell>
        <mxCell id="bI7eu8botKNeIg27B3gn-220" style="edgeStyle=orthogonalEdgeStyle;rounded=0;orthogonalLoop=1;jettySize=auto;html=1;exitX=0.5;exitY=1;exitDx=0;exitDy=0;curved=1;" edge="1" parent="1" source="bI7eu8botKNeIg27B3gn-190" target="bI7eu8botKNeIg27B3gn-209">
          <mxGeometry relative="1" as="geometry">
            <Array as="points">
              <mxPoint x="740" y="780" />
              <mxPoint x="580" y="780" />
            </Array>
          </mxGeometry>
        </mxCell>
        <mxCell id="bI7eu8botKNeIg27B3gn-190" value="7" style="ellipse;whiteSpace=wrap;html=1;aspect=fixed;fillColor=#d5e8d4;strokeColor=#82b366;" vertex="1" parent="1">
          <mxGeometry x="720" y="700" width="40" height="40" as="geometry" />
        </mxCell>
        <mxCell id="bI7eu8botKNeIg27B3gn-191" value="" style="endArrow=none;html=1;rounded=0;" edge="1" parent="1">
          <mxGeometry width="50" height="50" relative="1" as="geometry">
            <mxPoint x="410" y="750" as="sourcePoint" />
            <mxPoint x="410" y="690" as="targetPoint" />
            <Array as="points">
              <mxPoint x="390" y="750" />
              <mxPoint x="390" y="690" />
            </Array>
          </mxGeometry>
        </mxCell>
        <mxCell id="bI7eu8botKNeIg27B3gn-197" value="8" style="ellipse;whiteSpace=wrap;html=1;aspect=fixed;fillColor=#d5e8d4;strokeColor=#82b366;" vertex="1" parent="1">
          <mxGeometry x="640" y="800" width="40" height="40" as="geometry" />
        </mxCell>
        <mxCell id="bI7eu8botKNeIg27B3gn-198" value="5" style="ellipse;whiteSpace=wrap;html=1;aspect=fixed;fillColor=#d5e8d4;strokeColor=#82b366;" vertex="1" parent="1">
          <mxGeometry x="320" y="800" width="40" height="40" as="geometry" />
        </mxCell>
        <mxCell id="bI7eu8botKNeIg27B3gn-199" value="" style="endArrow=none;html=1;rounded=0;" edge="1" parent="1">
          <mxGeometry width="50" height="50" relative="1" as="geometry">
            <mxPoint x="10" y="850" as="sourcePoint" />
            <mxPoint x="10" y="790" as="targetPoint" />
            <Array as="points">
              <mxPoint x="-10" y="850" />
              <mxPoint x="-10" y="790" />
            </Array>
          </mxGeometry>
        </mxCell>
        <mxCell id="bI7eu8botKNeIg27B3gn-200" value="1" style="ellipse;whiteSpace=wrap;html=1;aspect=fixed;fillColor=#d5e8d4;strokeColor=#82b366;" vertex="1" parent="1">
          <mxGeometry y="800" width="40" height="40" as="geometry" />
        </mxCell>
        <mxCell id="bI7eu8botKNeIg27B3gn-201" value="4" style="ellipse;whiteSpace=wrap;html=1;aspect=fixed;fillColor=#d5e8d4;strokeColor=#82b366;" vertex="1" parent="1">
          <mxGeometry x="240" y="800" width="40" height="40" as="geometry" />
        </mxCell>
        <mxCell id="bI7eu8botKNeIg27B3gn-202" value="10" style="ellipse;whiteSpace=wrap;html=1;aspect=fixed;fillColor=#d5e8d4;strokeColor=#82b366;" vertex="1" parent="1">
          <mxGeometry x="720" y="800" width="40" height="40" as="geometry" />
        </mxCell>
        <mxCell id="bI7eu8botKNeIg27B3gn-204" value="1" style="ellipse;whiteSpace=wrap;html=1;aspect=fixed;fillColor=#d5e8d4;strokeColor=#82b366;" vertex="1" parent="1">
          <mxGeometry x="80" y="800" width="40" height="40" as="geometry" />
        </mxCell>
        <mxCell id="bI7eu8botKNeIg27B3gn-205" value="4" style="ellipse;whiteSpace=wrap;html=1;aspect=fixed;fillColor=#d5e8d4;strokeColor=#82b366;" vertex="1" parent="1">
          <mxGeometry x="160" y="800" width="40" height="40" as="geometry" />
        </mxCell>
        <mxCell id="bI7eu8botKNeIg27B3gn-206" value="6" style="ellipse;whiteSpace=wrap;html=1;aspect=fixed;fillColor=#d5e8d4;strokeColor=#82b366;" vertex="1" parent="1">
          <mxGeometry x="400" y="800" width="40" height="40" as="geometry" />
        </mxCell>
        <mxCell id="bI7eu8botKNeIg27B3gn-207" value="" style="endArrow=none;html=1;rounded=0;" edge="1" parent="1">
          <mxGeometry width="50" height="50" relative="1" as="geometry">
            <mxPoint x="750" y="850" as="sourcePoint" />
            <mxPoint x="750" y="790" as="targetPoint" />
            <Array as="points">
              <mxPoint x="770" y="850" />
              <mxPoint x="770" y="790" />
            </Array>
          </mxGeometry>
        </mxCell>
        <mxCell id="bI7eu8botKNeIg27B3gn-208" value="6" style="ellipse;whiteSpace=wrap;html=1;aspect=fixed;fillColor=#d5e8d4;strokeColor=#82b366;" vertex="1" parent="1">
          <mxGeometry x="480" y="800" width="40" height="40" as="geometry" />
        </mxCell>
        <mxCell id="bI7eu8botKNeIg27B3gn-209" value="7" style="ellipse;whiteSpace=wrap;html=1;aspect=fixed;fillColor=#d5e8d4;strokeColor=#82b366;" vertex="1" parent="1">
          <mxGeometry x="560" y="800" width="40" height="40" as="geometry" />
        </mxCell>
      </root>
    </mxGraphModel>
  </diagram>
</mxfile>
